<svg width="753" height="650" viewBox="0 0 753 650" fill="none" xmlns="http://www.w3.org/2000/svg">
<rect width="753" height="650" fill="#2D2D2D"/>
<path fill-rule="evenodd" clip-rule="evenodd" d="M429.907 280.733C429.907 291.719 438.313 300.627 448.693 300.627C459.074 300.627 467.484 291.719 467.484 280.733C467.484 269.743 459.074 260.83 448.693 260.83C438.317 260.83 429.907 269.738 429.907 280.733ZM459.403 389.03H296.814C292.369 389.03 290.825 384.817 293.387 380.953L340.38 309.486C342.939 305.631 347.597 304.941 350.731 308.292L360.225 318.306C363.36 321.657 368.235 321.351 371.065 317.709L393.866 288.284C396.688 284.645 401.066 284.826 403.6 288.708L462.893 380.918C465.418 384.8 463.849 389.03 459.403 389.03Z" fill="#B6B6B6"/>
</svg>
