<svg width="128" height="48" viewBox="0 0 128 48" fill="none" xmlns="http://www.w3.org/2000/svg">
<g clip-path="url(#clip0_106_566)">
<path d="M84.3795 10.2316C77.2539 11.8903 70.6317 14.8584 64.97 18.931C63.95 19.6605 62.9631 20.424 62.0095 21.2215C61.9452 21.2746 61.8834 21.3298 61.8179 21.3829C60.4057 22.5797 59.0755 23.8459 57.8339 25.1752C57.7331 25.2835 57.6348 25.3919 57.5352 25.5002C56.516 26.6119 55.5598 27.7647 54.6666 28.9587C50.3715 34.6967 47.698 41.2192 46.86 48.0044C46.0616 41.576 46.91 35.0753 49.3454 28.9587C49.7596 27.9244 50.2172 26.9077 50.7179 25.9087C50.844 25.6552 50.97 25.4016 51.1049 25.1502C52.3858 22.7215 53.9209 20.398 55.6913 18.2083C56.5206 17.1826 57.3991 16.1894 58.3267 15.2287C59.1913 14.3301 60.0975 13.4633 61.0453 12.6283C61.257 12.5622 61.4763 12.495 61.6994 12.43C66.4207 11.0409 73.2795 10.1709 80.9148 10.1709C82.0932 10.1709 83.2489 10.1915 84.3795 10.2316Z" fill="#FFFFE8"/>
<path d="M105.973 14.8624C105.962 14.793 105.955 14.7204 105.937 14.6543C105.918 14.5883 105.9 14.5211 105.874 14.4582C105.847 14.3954 105.821 14.3325 105.788 14.273C105.663 14.0461 105.497 13.8377 105.296 13.6554C105.112 13.4832 104.909 13.3262 104.691 13.1862C103.841 12.6369 102.903 12.2923 101.963 11.9944C101.023 11.7048 100.065 11.462 99.0928 11.2673C98.1274 11.0669 97.1531 10.9087 96.1763 10.7743C95.1996 10.64 94.219 10.5349 93.2359 10.4493C92.2529 10.3637 91.2698 10.3019 90.2854 10.2553C88.3179 10.1648 86.3463 10.1594 84.3782 10.2391C88.3011 10.3219 92.2098 10.6789 96.0654 11.3063C97.0233 11.4718 97.9732 11.6614 98.9151 11.8752C99.8516 12.0865 100.773 12.3441 101.675 12.6466C102.12 12.7954 102.555 12.9635 102.98 13.1504C103.395 13.3294 103.789 13.5416 104.158 13.7843C104.332 13.8994 104.493 14.0281 104.64 14.1689C104.776 14.2952 104.888 14.4393 104.972 14.5958C104.991 14.6327 105.004 14.6695 105.02 14.7042C105.037 14.7389 105.04 14.7779 105.053 14.8125C105.066 14.8472 105.062 14.883 105.069 14.9209C105.073 14.9602 105.073 14.9997 105.069 15.039C105.057 15.2006 105.01 15.3588 104.931 15.506C104.846 15.6668 104.735 15.8167 104.602 15.9513C104.539 16.0239 104.458 16.09 104.386 16.1593C104.314 16.2287 104.23 16.2937 104.142 16.3554C103.788 16.6125 103.408 16.842 103.007 17.0413C102.178 17.4503 101.311 17.7993 100.415 18.0847C100.191 18.1605 99.965 18.2353 99.7356 18.3014L99.0499 18.5062C98.5861 18.6308 98.1274 18.763 97.6636 18.8746C97.4291 18.932 97.1972 18.9927 96.9628 19.0468L96.257 19.2072C95.7881 19.3155 95.3117 19.412 94.8391 19.516C92.941 19.9071 91.0202 20.2289 89.0906 20.5117C87.161 20.7945 85.2377 21.047 83.3018 21.2626H83.2791L81.4756 21.4555C80.874 21.519 80.2719 21.5797 79.6695 21.6375C78.4671 21.7538 77.263 21.86 76.0573 21.956H76.0497C74.9516 22.0478 73.8525 22.1319 72.7527 22.2085C71.6524 22.2832 70.5521 22.358 69.4505 22.4252L67.7957 22.5205L66.1434 22.6451C65.0418 22.7253 63.9415 22.8174 62.84 22.9063C63.9453 22.8846 65.0506 22.8673 66.156 22.838L67.807 22.7936L69.4644 22.7676C70.571 22.747 71.6763 22.721 72.7816 22.6776C73.887 22.6343 74.9784 22.5899 76.0775 22.5357H76.1002C77.3151 22.47 78.5293 22.393 79.7426 22.3049C80.3492 22.2609 80.9559 22.2143 81.5625 22.1651C82.1587 22.1175 82.7548 22.0568 83.3497 22.0048H83.3787C85.3373 21.8141 87.2946 21.5952 89.2444 21.3265C91.1942 21.0578 93.1351 20.736 95.0634 20.3514C96.0264 20.1531 96.988 19.9461 97.9396 19.7013C98.4172 19.5853 98.8899 19.4467 99.3638 19.3166L100.07 19.0999C100.305 19.0306 100.538 18.9526 100.772 18.8724C101.717 18.5658 102.632 18.1917 103.505 17.7542C103.954 17.5253 104.376 17.2601 104.766 16.9622C104.866 16.8885 104.96 16.8018 105.056 16.7217C105.151 16.6415 105.241 16.5505 105.325 16.4529C105.506 16.262 105.656 16.0505 105.77 15.8245C105.892 15.5847 105.961 15.3276 105.974 15.0661C105.979 14.9982 105.979 14.9302 105.973 14.8624Z" fill="#FFFFE8"/>
<path d="M47.7107 26.0864C47.2444 27.0255 46.8167 27.9815 46.4277 28.9544H0L47.7107 26.0864Z" fill="#FFFFE8"/>
<path d="M73.8234 36.7025C73.5522 37.6116 73.0879 38.4697 72.454 39.2337C71.8848 39.9261 71.1396 40.4979 70.2748 40.9055C69.4581 41.2893 68.5421 41.4899 67.6114 41.4889C66.686 41.4889 65.9221 41.2944 65.3197 40.9055C64.7172 40.5167 64.3296 39.9627 64.1568 39.2435C63.986 38.5244 64.0445 37.6957 64.3323 36.7576L64.5048 36.2044C64.7779 35.293 65.2466 34.4333 65.8866 33.6697C66.4614 32.9741 67.2116 32.3993 68.0813 31.9881C68.8953 31.605 69.8085 31.4044 70.7365 31.4048C71.6666 31.4048 72.4312 31.5969 73.0302 31.981C73.6292 32.3651 74.0124 32.918 74.1797 33.6395C74.347 34.361 74.284 35.2003 73.9907 36.1574L73.8234 36.7025ZM71.9995 36.1902C72.3383 35.1029 72.3589 34.2692 72.0615 33.6892C71.7641 33.1091 71.1761 32.8194 70.2976 32.82C69.4404 32.82 68.6799 33.1088 68.0162 33.6865C67.3525 34.2642 66.8509 35.081 66.5115 36.137L66.3349 36.7034C65.9989 37.7818 65.9834 38.6155 66.2884 39.2044C66.5934 39.7934 67.1786 40.0878 68.0441 40.0878C68.9219 40.0878 69.6872 39.8002 70.3399 39.2249C70.9926 38.6495 71.4911 37.8094 71.8353 36.7043L71.9995 36.1902Z" fill="#FFFFE8"/>
<path d="M56.121 37.7135L54.985 41.3536H53L56.0621 31.5386H60.4297C61.7048 31.5386 62.6284 31.8242 63.2006 32.3953C63.7727 32.9665 63.9121 33.7224 63.6188 34.6629C63.3186 35.6253 62.7179 36.3743 61.8167 36.91C60.9154 37.4457 59.8035 37.712 58.4808 37.709L56.121 37.7135ZM56.5496 36.3382H58.9332C59.6389 36.3382 60.2217 36.1956 60.6817 35.9103C61.1416 35.625 61.4555 35.2127 61.6235 34.6735C61.7888 34.1408 61.7327 33.7173 61.4552 33.403C61.1777 33.0887 60.7109 32.926 60.0548 32.9147H57.6164L56.5496 36.3382Z" fill="#FFFFE8"/>
<path d="M76.7554 39.9917H81.9378L81.5134 41.3536H74.347L77.4061 31.5386H79.39L76.7554 39.9917Z" fill="#FFFFE8"/>
<path d="M89.7887 38.8253C89.9264 38.3938 89.8538 38.0612 89.5708 37.8274C89.2879 37.5936 88.725 37.3568 87.8823 37.1171C87.0368 36.8803 86.3875 36.614 85.9345 36.318C85.069 35.7563 84.7771 35.0239 85.0587 34.1206C85.3052 33.3299 85.8832 32.6788 86.7927 32.1674C87.7022 31.656 88.7556 31.4 89.9529 31.3994C90.7475 31.3994 91.4167 31.5252 91.9606 31.7767C92.4798 32.0033 92.8841 32.3859 93.0967 32.8519C93.3073 33.3171 93.3242 33.8327 93.1473 34.3985H91.1675C91.3272 33.886 91.2652 33.4849 90.9816 33.1955C90.6979 32.9061 90.2087 32.7611 89.514 32.7605C88.8661 32.7605 88.326 32.8788 87.8936 33.1156C87.4688 33.3428 87.1636 33.7033 87.0426 34.1206C86.9822 34.2791 86.9784 34.4495 87.0318 34.6098C87.0852 34.7702 87.1933 34.9131 87.3421 35.02C87.654 35.2603 88.2189 35.4941 89.0369 35.7214C89.8548 35.9487 90.4879 36.2071 90.9361 36.4965C91.3844 36.7865 91.6752 37.1192 91.8088 37.4944C91.9424 37.8697 91.931 38.3089 91.7747 38.812C91.52 39.63 90.9527 40.281 90.0728 40.7652C89.1928 41.2494 88.1284 41.4909 86.8795 41.4897C86.0533 41.4897 85.3351 41.3583 84.7251 41.0955C84.1151 40.8327 83.69 40.4699 83.4497 40.007C83.2101 39.5441 83.186 39.0049 83.3774 38.3894H85.3613C85.1878 38.9463 85.2677 39.3778 85.6009 39.6838C85.9341 39.9898 86.5008 40.1425 87.3008 40.142C87.9893 40.142 88.5456 40.0218 88.9698 39.7815C89.3735 39.5632 89.6661 39.2216 89.7887 38.8253Z" fill="#FFFFE8"/>
<path d="M95.8438 37.7135L94.7077 41.3536H92.7228L95.7849 31.5386H100.152C101.428 31.5386 102.351 31.8242 102.923 32.3953C103.495 32.9665 103.635 33.7224 103.342 34.6629C103.041 35.6253 102.441 36.3743 101.539 36.91C100.638 37.4457 99.5262 37.712 98.2036 37.709L95.8438 37.7135ZM96.2724 36.3382H98.656C99.3617 36.3382 99.9445 36.1956 100.404 35.9103C100.864 35.625 101.178 35.2127 101.346 34.6735C101.512 34.1408 101.455 33.7173 101.178 33.403C100.901 33.0887 100.434 32.926 99.7775 32.9147H97.3392L96.2724 36.3382Z" fill="#FFFFE8"/>
<path d="M113.549 36.7025C113.278 37.6116 112.814 38.4697 112.18 39.2337C111.611 39.9261 110.866 40.4978 110.001 40.9055C109.184 41.2893 108.268 41.4899 107.337 41.4889C106.412 41.4889 105.648 41.2944 105.046 40.9055C104.443 40.5167 104.057 39.963 103.886 39.2444C103.715 38.5252 103.774 37.6966 104.061 36.7584L104.234 36.2053C104.507 35.2935 104.976 34.4336 105.616 33.6697C106.191 32.9741 106.941 32.3992 107.81 31.9881C108.624 31.6051 109.538 31.4044 110.466 31.4048C111.396 31.4048 112.16 31.5969 112.759 31.981C113.358 32.3651 113.742 32.918 113.909 33.6395C114.076 34.361 114.013 35.2003 113.72 36.1574L113.549 36.7025ZM111.726 36.1902C112.064 35.1029 112.085 34.2692 111.788 33.6892C111.49 33.1091 110.902 32.8194 110.024 32.82C109.166 32.82 108.406 33.1088 107.742 33.6865C107.078 34.2642 106.577 35.081 106.237 36.137L106.061 36.7034C105.725 37.7818 105.709 38.6155 106.014 39.2044C106.319 39.7934 106.905 40.0878 107.77 40.0878C108.648 40.0878 109.413 39.8002 110.066 39.2249C110.719 38.6495 111.217 37.8094 111.561 36.7043L111.726 36.1902Z" fill="#FFFFE8"/>
<path d="M123.434 15.6749C123.365 15.1437 123.251 14.6175 123.092 14.1006C120.742 6.45218 108.816 0.538452 94.1484 0.0400438C93.4762 0.0169292 92.8007 0.00537109 92.1218 0.00537109C83.074 0.301566 74.2903 2.70715 66.7105 6.96467C65.072 8.17169 63.7336 9.50222 62.7391 10.9238L64.1255 10.499C68.7535 9.08074 75.6464 8.18036 83.3459 8.18036C88.3533 8.18036 97.2098 9.27902 97.2779 9.27469C103.982 10.4351 108.438 12.4168 108.578 14.6608C108.578 14.6965 108.578 14.7333 108.578 14.7691C108.578 14.8049 108.578 14.8417 108.578 14.8775C108.515 16.1397 107.352 17.3478 105.27 18.4682C101.161 20.6785 93.4779 22.541 83.6257 23.7773C81.047 24.1023 78.3196 24.3776 75.4687 24.6094C72.5018 24.8489 69.3988 25.0428 66.19 25.1674H66.1648L64.878 25.2454L60.5814 25.5022C59.5179 26.6496 58.5234 27.843 57.6019 29.0778V29.0832H113.772C117.629 27.108 120.552 24.6127 122.145 21.8053C123.037 20.2713 123.506 18.5809 123.515 16.8657C123.514 16.4678 123.487 16.0702 123.434 15.6749Z" fill="#FFFFE8"/>
</g>
<defs>
<clipPath id="clip0_106_566">
<rect width="128" height="48" fill="white"/>
</clipPath>
</defs>
</svg>
