<svg width="753" height="650" fill="none" xmlns="http://www.w3.org/2000/svg"><path fill="#2D2D2D" d="M0 0h753v650H0z"/><path fill-rule="evenodd" clip-rule="evenodd" d="M429.907 280.733c0 10.986 8.406 19.894 18.786 19.894 10.381 0 18.791-8.908 18.791-19.894 0-10.99-8.41-19.903-18.791-19.903-10.376 0-18.786 8.908-18.786 19.903Zm29.496 108.297H296.814c-4.445 0-5.989-4.213-3.427-8.077l46.993-71.467c2.559-3.855 7.217-4.545 10.351-1.194l9.494 10.014c3.135 3.351 8.01 3.045 10.84-.597l22.801-29.425c2.822-3.639 7.2-3.458 9.734.424l59.293 92.21c2.525 3.882.956 8.112-3.49 8.112Z" fill="#B6B6B6"/></svg>