<svg width="128" height="48" fill="none" xmlns="http://www.w3.org/2000/svg"><g clip-path="url(#a)" fill="#FFFFE8"><path d="M84.38 10.232c-7.126 1.658-13.748 4.626-19.41 8.699a49.484 49.484 0 0 0-2.96 2.29c-.065.054-.127.109-.192.162a47.253 47.253 0 0 0-3.984 3.792l-.299.325a45.038 45.038 0 0 0-2.868 3.459c-4.296 5.738-6.969 12.26-7.807 19.045-.798-6.428.05-12.929 2.485-19.045a39.954 39.954 0 0 1 1.373-3.05c.126-.254.252-.507.387-.759a42.818 42.818 0 0 1 4.586-6.942 45.22 45.22 0 0 1 2.636-2.98 45.613 45.613 0 0 1 2.718-2.6c.212-.066.431-.133.654-.198 4.722-1.39 11.58-2.26 19.216-2.26 1.178 0 2.334.021 3.464.062Z"/><path d="M105.973 14.862c-.011-.069-.018-.142-.036-.208-.019-.066-.037-.133-.063-.196-.027-.063-.053-.126-.086-.185a2.399 2.399 0 0 0-.492-.618 4.23 4.23 0 0 0-.605-.469c-.85-.55-1.788-.894-2.728-1.192a29.27 29.27 0 0 0-2.87-.727c-.966-.2-1.94-.358-2.917-.493a59.412 59.412 0 0 0-2.94-.325 74.72 74.72 0 0 0-2.95-.194 68.373 68.373 0 0 0-5.908-.016c3.923.083 7.832.44 11.687 1.067a55.75 55.75 0 0 1 2.85.57c.937.21 1.858.468 2.76.77.445.15.88.317 1.305.504.415.18.809.392 1.178.634.174.115.335.244.482.385.136.126.248.27.332.427.019.037.032.073.048.108.017.035.02.074.033.108.013.035.009.071.016.109a.583.583 0 0 1 0 .118 1.17 1.17 0 0 1-.138.467 1.92 1.92 0 0 1-.329.445c-.063.073-.144.139-.216.208a2.04 2.04 0 0 1-.244.196 7.96 7.96 0 0 1-1.135.686 18.61 18.61 0 0 1-2.592 1.044c-.224.075-.45.15-.68.216l-.685.205c-.464.125-.923.257-1.386.369-.235.057-.467.118-.701.172l-.706.16c-.469.108-.945.205-1.418.309a101.57 101.57 0 0 1-5.748.996 168.4 168.4 0 0 1-5.79.75h-.022l-1.803.194a213.697 213.697 0 0 1-5.418.5h-.008c-1.098.092-2.197.176-3.297.253-1.1.074-2.2.149-3.302.216l-1.655.095-1.653.125c-1.101.08-2.202.172-3.303.261 1.105-.021 2.21-.039 3.316-.068l1.651-.044 1.657-.026c1.107-.021 2.212-.047 3.318-.09 1.105-.044 2.196-.088 3.296-.142h.022a197.726 197.726 0 0 0 5.463-.37c.596-.049 1.192-.11 1.787-.161h.029c1.958-.19 3.916-.41 5.865-.678 1.95-.27 3.891-.591 5.82-.976a60.557 60.557 0 0 0 2.876-.65c.477-.116.95-.254 1.424-.384l.706-.217c.235-.07.468-.147.702-.228.945-.306 1.86-.68 2.733-1.118a8.246 8.246 0 0 0 1.261-.792c.1-.073.194-.16.29-.24.095-.08.185-.172.269-.27a2.65 2.65 0 0 0 .445-.628 1.875 1.875 0 0 0 .203-.962ZM47.71 26.086a39.02 39.02 0 0 0-1.282 2.868H0l47.71-2.868Zm26.113 10.617a7.186 7.186 0 0 1-1.369 2.53 6.27 6.27 0 0 1-2.18 1.673 6.265 6.265 0 0 1-2.663.583c-.925 0-1.689-.195-2.291-.583-.603-.39-.99-.943-1.163-1.663-.171-.719-.112-1.547.175-2.485l.173-.554a7.144 7.144 0 0 1 1.382-2.534 6.364 6.364 0 0 1 2.194-1.682 6.248 6.248 0 0 1 2.656-.583c.93 0 1.694.192 2.293.576.6.384.982.937 1.15 1.658.167.722.104 1.561-.19 2.518l-.167.546ZM72 36.19c.338-1.087.359-1.92.061-2.5-.297-.58-.885-.87-1.763-.87-.858 0-1.618.289-2.282.867-.663.577-1.165 1.394-1.505 2.45l-.176.566c-.336 1.079-.352 1.912-.047 2.501.305.59.89.884 1.756.884.878 0 1.643-.288 2.296-.863.653-.575 1.151-1.416 1.495-2.52L72 36.19Zm-15.879 1.524-1.136 3.64H53l3.062-9.815h4.368c1.275 0 2.198.285 2.77.856.573.572.712 1.327.419 2.268-.3.962-.901 1.711-1.802 2.247-.902.536-2.014.802-3.336.799l-2.36.005Zm.429-1.376h2.383c.706 0 1.289-.142 1.749-.428.46-.285.773-.697.941-1.236.166-.533.11-.957-.168-1.271-.277-.314-.744-.477-1.4-.488h-2.439l-1.066 3.423Zm20.205 3.654h5.183l-.425 1.362h-7.166l3.06-9.815h1.983l-2.635 8.453Zm13.034-1.167c.137-.431.065-.764-.218-.998-.283-.233-.846-.47-1.689-.71-.845-.237-1.495-.503-1.948-.799-.865-.562-1.157-1.294-.875-2.197.246-.791.824-1.442 1.734-1.954.91-.511 1.963-.767 3.16-.768.794 0 1.464.126 2.008.378.519.226.923.609 1.136 1.075.21.465.227.98.05 1.547h-1.98c.16-.513.098-.914-.185-1.203-.284-.29-.773-.435-1.468-.435-.648 0-1.188.118-1.62.355-.425.227-.73.587-.851 1.005a.723.723 0 0 0-.011.489c.053.16.161.303.31.41.312.24.877.474 1.695.701.818.228 1.45.486 1.9.776.447.29.738.622.872.997.133.376.122.815-.034 1.318-.255.818-.822 1.469-1.702 1.953s-1.945.726-3.194.725c-.826 0-1.544-.132-2.154-.395-.61-.262-1.035-.625-1.275-1.088-.24-.463-.264-1.002-.073-1.618h1.984c-.173.557-.093.989.24 1.295.333.306.9.459 1.7.458.688 0 1.245-.12 1.669-.36.404-.219.696-.56.819-.957Zm6.055-1.111-1.136 3.64h-1.985l3.062-9.815h4.367c1.276 0 2.199.285 2.771.856.572.572.712 1.327.419 2.268-.301.962-.901 1.711-1.803 2.247-.901.536-2.013.802-3.335.799l-2.36.005Zm.428-1.376h2.384c.706 0 1.288-.142 1.748-.428.46-.285.774-.697.942-1.236.166-.533.109-.957-.168-1.271-.277-.314-.744-.477-1.4-.488h-2.439l-1.067 3.423Zm17.277.365a7.18 7.18 0 0 1-1.369 2.53 6.266 6.266 0 0 1-2.179 1.673 6.268 6.268 0 0 1-2.664.583c-.925 0-1.689-.195-2.291-.583-.603-.39-.989-.943-1.16-1.662-.171-.719-.112-1.547.175-2.486l.173-.553a7.145 7.145 0 0 1 1.382-2.535 6.369 6.369 0 0 1 2.194-1.682 6.253 6.253 0 0 1 2.656-.583c.93 0 1.694.192 2.293.576.599.384.983.937 1.15 1.658.167.722.104 1.561-.189 2.518l-.171.546Zm-1.823-.513c.338-1.087.359-1.92.062-2.5-.298-.58-.886-.87-1.764-.87-.858 0-1.618.289-2.282.867-.664.577-1.165 1.394-1.505 2.45l-.176.566c-.336 1.079-.352 1.912-.047 2.501.305.59.891.884 1.756.884.878 0 1.643-.288 2.296-.863.653-.575 1.151-1.416 1.495-2.52l.165-.515Z"/><path d="M123.434 15.675a9.526 9.526 0 0 0-.342-1.574C120.742 6.452 108.816.538 94.148.04a58.966 58.966 0 0 0-2.026-.035C83.074.302 74.29 2.707 66.71 6.965c-1.638 1.207-2.976 2.537-3.97 3.959l1.386-.425c4.627-1.418 11.52-2.319 19.22-2.319 5.007 0 13.864 1.099 13.932 1.095 6.704 1.16 11.16 3.142 11.3 5.386v.216c-.063 1.263-1.226 2.47-3.308 3.591-4.109 2.21-11.792 4.073-21.644 5.31-2.579.324-5.306.6-8.157.831-2.967.24-6.07.434-9.279.558h-.025l-1.287.078-4.297.257a43.782 43.782 0 0 0-2.98 3.576v.005h56.171c3.857-1.975 6.78-4.47 8.373-7.278.892-1.534 1.361-3.224 1.37-4.94a9.132 9.132 0 0 0-.081-1.19Z"/></g><defs><clipPath id="a"><path fill="#fff" d="M0 0h128v48H0z"/></clipPath></defs></svg>